#!OML:ASF X:\für Bonn\!DataBase\2005_08_12_Daniel\c3d\Daniel.ASF
:FULLY-SPECIFIED
:DEGREES
99
root 0.896782 7.54703 -0.805051 11.7278 -86.6194 -41.2163
lowerback 59.9747 -4.24869 5.88558
upperback 3.91875 -3.37425 -2.14081
thorax -17.7114 -2.33457 -3.09551
lowerneck 7.64376 1.39796 -2.0358
upperneck -5.55686 1.60733 -0.557218
head -3.14129 0.863715 0.0934258
rclavicle -1.66979e-014 -4.37326e-015
rhumerus 65.2689 0.0752057 -91.2417
rradius 9.23537
rwrist 55.8895
rhand -22.6825 9.91756
rfingers 7.12502
rthumb 3.74969 -20.0292
lclavicle -1.66979e-014 -4.37326e-015
lhumerus 62.483 1.42692 84.105
lradius 12.1064
lwrist -58.0061
lhand -19.9356 0.561228
lfingers 7.12502
lthumb 6.40201 30.4445
rfemur 15.4218 -62.4894 -110.547
rtibia 148.909
rfoot -36.9234 62.9296
rtoes -14.3161
lfemur -32.3156 67.0318 60.7093
ltibia 146.094
lfoot -21.6047 -65.2149
ltoes 4.85815
100
root 0.915303 7.71136 -0.80468 11.4751 -86.5657 -40.5063
lowerback 59.8434 -4.28994 5.89435
upperback 3.82948 -3.40185 -2.14099
thorax -17.8195 -2.34016 -3.08767
lowerneck 7.47475 1.38597 -2.04592
upperneck -5.50794 1.59166 -0.600446
head -3.09155 0.857074 0.0833415
rclavicle 3.27995e-015 2.38542e-015
rhumerus 65.367 0.0508488 -91.4189
rradius 8.9384
rwrist 56.0302
rhand -22.7426 9.63629
rfingers 7.12502
rthumb 3.6917 -20.3115
lclavicle 3.27995e-015 2.38542e-015
lhumerus 62.5101 1.28034 83.4686
lradius 12.1135
lwrist -57.8075
lhand -19.7125 0.882399
lfingers 7.12502
lthumb 6.61734 30.759
rfemur 12.7863 -63.5636 -105.132
rtibia 147.72
rfoot -34.1314 61.516
rtoes -14.3439
lfemur -36.4408 65.7083 54.096
ltibia 144.935
lfoot -21.5637 -63.223
ltoes 4.66143
101
root 0.933271 7.88108 -0.803849 11.0642 -86.5219 -39.648
lowerback 59.697 -4.31568 5.8958
upperback 3.76038 -3.41943 -2.14113
thorax -17.9007 -2.34169 -3.08245
lowerneck 7.29456 1.36156 -2.01032
upperneck -5.45889 1.56106 -0.690619
head -3.03868 0.843678 0.0508868
rclavicle 8.15017e-015 2.14687e-014
rhumerus 65.472 -0.0210768 -91.5736
rradius 8.71784
rwrist 56.0728
rhand -22.76 9.41606
rfingers 7.12502
rthumb 3.67489 -20.532
lclavicle 8.15017e-015 2.14687e-014
lhumerus 62.5941 1.17308 82.9975
lradius 12.1024
lwrist -57.7068
lhand -19.568 1.19149
lfingers 7.12502
lthumb 6.75689 31.0637
rfemur 9.16045 -64.5106 -98.7404
rtibia 146.474
rfoot -31.7236 59.9356
rtoes -14.4569
lfemur -40.1265 64.0613 47.9022
ltibia 143.714
lfoot -21.3721 -61.1963
ltoes 4.45173
102
root 0.951242 8.0507 -0.803387 10.9196 -86.4857 -39.0611
lowerback 59.5292 -4.34258 5.89861
upperback 3.69461 -3.4413 -2.1517
thorax -17.9778 -2.34495 -3.08825
lowerneck 7.17244 1.3449 -1.96659
upperneck -5.42565 1.54156 -0.760197
head -3.00267 0.835054 0.0227031
rclavicle -1.47101e-014 1.98785e-015
rhumerus 65.5359 -0.083001 -91.7579
rradius 8.53988
rwrist 56.0843
rhand -22.8551 9.27916
rfingers 7.12502
rthumb 3.58303 -20.6705
lclavicle -1.47101e-014 1.98785e-015
lhumerus 62.7037 1.3124 83.1017
lradius 12.0415
lwrist -58.251
lhand -19.5545 1.4661
lfingers 7.12502
lthumb 6.76988 31.3379
rfemur 4.32176 -65.2605 -91.1681
rtibia 145.197
rfoot -28.8264 58.4321
rtoes -14.4019
lfemur -43.1511 62.2315 42.4701
ltibia 142.479
lfoot -21.2862 -59.2359
ltoes 4.35003
103
root 0.969577 8.22569 -0.802618 10.9146 -86.4319 -38.5015
lowerback 59.2227 -4.36839 5.91815
upperback 3.63163 -3.44965 -2.14733
thorax -18.0411 -2.34159 -3.09448
lowerneck 7.08839 1.31921 -1.93905
upperneck -5.40044 1.50582 -0.848711
head -2.97667 0.819461 -0.00828625
rclavicle -7.95139e-016 -1.55052e-014
rhumerus 65.5326 -0.155375 -91.9152
rradius 8.47672
rwrist 56.0315
rhand -22.8998 9.20094
rfingers 7.12502
rthumb 3.53985 -20.7494
lclavicle -7.95139e-016 -1.55052e-014
lhumerus 62.821 1.48923 83.369
lradius 11.9843
lwrist -58.902
lhand -19.6149 1.70483
lfingers 7.12502
lthumb 6.71163 31.5785
rfemur -1.63413 -65.7873 -82.4656
rtibia 143.892
rfoot -26.0382 56.7159
rtoes -14.345
lfemur -45.9791 60.2706 37.3076
ltibia 141.23
lfoot -21.2424 -57.1907
ltoes 4.17576
104
root 0.987506 8.40706 -0.80219 11.3531 -86.3939 -38.292
lowerback 58.8259 -4.37233 5.92251
upperback 3.55781 -3.44094 -2.1364
thorax -18.1099 -2.32929 -3.0977
lowerneck 7.03875 1.28447 -1.84098
upperneck -5.42265 1.45856 -1.00581
head -2.97218 0.799562 -0.0736492
rclavicle 0 2.18663e-014
rhumerus 65.5259 -0.205497 -92.0909
rradius 8.41993
rwrist 56.0133
rhand -22.9755 9.15115
rfingers 7.12502
rthumb 3.46673 -20.8004
lclavicle 0 2.18663e-014
lhumerus 62.9445 1.69002 83.6847
lradius 11.9219
lwrist -59.4967
lhand -19.692 1.89942
lfingers 7.12502
lthumb 6.63713 31.7754
rfemur -9.12083 -65.9042 -72.1978
rtibia 142.526
rfoot -22.8368 54.8216
rtoes -14.2061
lfemur -48.4507 58.1821 32.5592
ltibia 139.922
lfoot -21.0397 -55.1518
ltoes 4.07604
105
root 1.00421 8.58885 -0.80142 11.5921 -86.3727 -37.9218
lowerback 58.431 -4.36027 5.90931
upperback 3.50838 -3.4275 -2.11877
thorax -18.1455 -2.31502 -3.08807
lowerneck 6.9414 1.25257 -1.79586
upperneck -5.40611 1.4146 -1.11864
head -2.94645 0.780284 -0.115073
rclavicle 1.25234e-014 3.97569e-016
rhumerus 65.4815 -0.279652 -92.2383
rradius 8.49082
rwrist 55.9826
rhand -22.9827 9.18578
rfingers 7.12502
rthumb 3.45979 -20.7659
lclavicle 1.25234e-014 3.97569e-016
lhumerus 63.1164 1.98536 84.2609
lradius 11.849
lwrist -60.345
lhand -19.7717 2.03457
lfingers 7.12502
lthumb 6.56024 31.913
rfemur -16.7878 -65.307 -61.8963
rtibia 141.129
rfoot -19.6638 52.8907
rtoes -13.8665
lfemur -50.3934 55.9609 28.3746
ltibia 138.585
lfoot -21.0582 -53.0933
ltoes 3.88635
106
root 1.01803 8.77015 -0.800164 11.8376 -86.37 -37.643
lowerback 58.097 -4.34498 5.88794
upperback 3.45922 -3.41713 -2.10897
thorax -18.1841 -2.3028 -3.08091
lowerneck 6.86323 1.23537 -1.74178
upperneck -5.39365 1.39084 -1.22899
head -2.9259 0.770821 -0.158344
rclavicle -8.15017e-015 7.15625e-015
rhumerus 65.3936 -0.332125 -92.4045
rradius 8.59603
rwrist 55.9804
rhand -22.9495 9.23829
rfingers 7.12502
rthumb 3.49188 -20.7129
lclavicle -8.15017e-015 7.15625e-015
lhumerus 63.2583 2.20469 84.6114
lradius 11.7899
lwrist -60.9638
lhand -19.8381 2.20998
lfingers 7.12502
lthumb 6.49609 32.0904
rfemur -23.8781 -63.9699 -52.2496
rtibia 139.681
rfoot -16.7513 50.8954
rtoes -13.5021
lfemur -51.7155 53.6764 24.8587
ltibia 137.223
lfoot -21.1991 -51.1153
ltoes 3.63778
